<?xml version="1.0" encoding="utf-8"?>
<!-- Generator: Adobe Illustrator 26.1.0, SVG Export Plug-In . SVG Version: 6.00 Build 0)  -->
<svg version="1.1" id="Camada_1" xmlns="http://www.w3.org/2000/svg" xmlns:xlink="http://www.w3.org/1999/xlink" x="0px" y="0px"
	 viewBox="0 0 32 32" style="enable-background:new 0 0 32 32;" xml:space="preserve">
<style type="text/css">
	.st0{fill:#606060;}
</style>
<path class="st0" d="M17.9,26.7h11.8c0.4,0,0.7-0.1,1.1-0.3c0.3-0.2,0.7-0.4,0.9-0.7c0.2-0.3,0.3-0.7,0.3-1.1c0-0.4-0.1-0.7-0.3-1.1
	l-8-13.8c-0.2-0.3-0.4-0.6-0.7-0.7c-0.3-0.2-0.8-0.3-1.2-0.3S21,8.8,20.7,9c-0.3,0.2-0.6,0.4-0.7,0.7l-2,3.5l-4.1-6.8
	c-0.2-0.3-0.4-0.7-0.7-0.9c-0.3-0.2-0.7-0.2-1.1-0.2s-0.7,0-1.1,0.2c-0.3,0.2-0.7,0.5-0.9,0.9L0.2,23.5C0,23.8,0,24.2,0,24.6
	c0,0.4,0,0.7,0.2,1.1c0.2,0.3,0.5,0.6,0.9,0.7s0.7,0.3,1.1,0.3h7.5c3,0,5.1-1.3,6.6-3.8l3.6-6.3l1.9-3.3l5.9,10h-7.8L17.9,26.7z
	 M9.5,23.3H4.3l7.8-13.4l3.9,6.7l-2.6,4.6C12.4,22.7,11.3,23.3,9.5,23.3z"/>
</svg>
